# xmcd
#
# Track frame offsets:
#	182
#	24775
#	38792
#	54392
#	72012
#	83920
#	102115
#	125657
#	153107
#
# Disc length: 2271 seconds
#
# Revision: 0
# Processed by: cddbd v1.5.2PL0 Copyright (c) Steve Scherf et al.
# Submitted via: EasyCDDAExtractor 16.0.6.1
#
DISCID=6208dd09
DTITLE=Συλλογικός δίσκος - Μαουτχάουζεν-Το τραγούδι του νεκρού αδελφού
DYEAR=1997
DGENRE=Έντεχνη λαϊκή
TTITLE0=Φαραντούρη Μαρία-χορωδία - Άσμα ασμάτων [Μαουτχάουζεν, Μ. Θεοδωράκη-Ι.
TTITLE0=Καμπανέλλη]
TTITLE1=Φαραντούρη Μαρία-χορωδία - Αντώνης [Μαουτχάουζεν, Μ. Θεοδωράκη-Ι. Καμπ
TTITLE1=ανέλλη]
TTITLE2=Φαραντούρη Μαρία-χορωδία - Ο δραπέτης [Μαουτχάουζεν, Βαγγ. Γερμανού-Ι.
TTITLE2=Καμπανέλλη]
TTITLE3=Φαραντούρη Μαρία-χορωδία - Όταν τελειώσει ο πόλεμος [Μαουτχάουζεν, Μ. 
TTITLE3=Θεοδωράκη-Ι. Καμπανέλλη]
TTITLE4=Πανδής Πέτρος - Απρίλης [Τραγούδι του νεκρού αδελφού, Μ. Θεοδωράκη]
TTITLE5=Πανδής Πέτρος - Ένα δειλινό [Τραγούδι του νεκρού αδελφού, Μ. Θεοδωράκη
TTITLE5=]
TTITLE6=Μάνου Αφροδίτη - Κοιμήσου αγγελούδι μου [Τραγούδι του νεκρού αδελφού, 
TTITLE6=Μ. Θεοδωράκη-Κ. Βίρβου]
TTITLE7=Πανδής Πέτρος - Το όνειρο [Τραγούδι του νεκρού αδελφού, Νίκου Ζουδιάρη
TTITLE7=]
TTITLE8=Μάνου Αφροδίτη - Προδωμένη αγάπη [Τραγούδι του νεκρού αδελφού, Μ. Θεοδ
TTITLE8=ωράκη]
EXTD=
EXTT0=
EXTT1=
EXTT2=
EXTT3=
EXTT4=
EXTT5=
EXTT6=
EXTT7=
EXTT8=
PLAYORDER=
